HIERARCHY
ROOT mixamorig:Hips
{
  OFFSET 0.000000 0.000000 0.000000
  CHANNELS 6 Xposition Yposition Zposition Xrotation Yrotation Zrotation
  JOINT mixamorig:Spine
  {
    OFFSET 1.153752 24.040563 -4.909010
    CHANNELS 3 Xrotation Yrotation Zrotation
    JOINT mixamorig:Spine2
    {
      OFFSET 1.153752 24.040563 -4.909010
      CHANNELS 3 Xrotation Yrotation Zrotation
      JOINT mixamorig:Neck
      {
        OFFSET 0.000000 4.932851 0.000000
        CHANNELS 3 Xrotation Yrotation Zrotation
        JOINT mixamorig:Head
        {
          OFFSET 0.000000 5.437762 0.000000
          CHANNELS 3 Xrotation Yrotation Zrotation
          End Site
          {
            OFFSET 0.000000 1.631329 0.000000
          }
        }
      }
      JOINT mixamorig:LeftShoulder
      {
        OFFSET 16.168012 6.279607 -4.266810
        CHANNELS 3 Xrotation Yrotation Zrotation
        JOINT mixamorig:LeftArm
        {
          OFFSET 6.545061 -21.632230 2.960170
          CHANNELS 3 Xrotation Yrotation Zrotation
          JOINT mixamorig:LeftForeArm
          {
            OFFSET 1.498368 -23.182161 2.338304
            CHANNELS 3 Xrotation Yrotation Zrotation
            JOINT mixamorig:LeftHand
            {
              OFFSET -1.465154 -3.436964 -0.741780
              CHANNELS 3 Xrotation Yrotation Zrotation
              End Site
              {
                OFFSET -0.439546 -1.031089 -0.222534
              }
            }
          }
        }
      }
      JOINT mixamorig:RightShoulder
      {
        OFFSET -16.168012 6.279607 4.266810
        CHANNELS 3 Xrotation Yrotation Zrotation
        JOINT mixamorig:RightArm
        {
          OFFSET -21.602294 -8.789214 -2.250702
          CHANNELS 3 Xrotation Yrotation Zrotation
          JOINT mixamorig:RightForeArm
          {
            OFFSET -22.892153 1.498261 -8.563673
            CHANNELS 3 Xrotation Yrotation Zrotation
            JOINT mixamorig:RightHand
            {
              OFFSET -1.659101 2.167831 -4.005455
              CHANNELS 3 Xrotation Yrotation Zrotation
              End Site
              {
                OFFSET -0.497730 0.650349 -1.201637
              }
            }
          }
        }
      }
    }
  }
  JOINT mixamorig:LeftUpLeg
  {
    OFFSET 8.955008 -0.525145 1.977289
    CHANNELS 3 Xrotation Yrotation Zrotation
    JOINT mixamorig:LeftLeg
    {
      OFFSET 1.504921 -41.558457 -0.051202
      CHANNELS 3 Xrotation Yrotation Zrotation
      JOINT mixamorig:LeftFoot
      {
        OFFSET -3.448404 -39.156571 14.502048
        CHANNELS 3 Xrotation Yrotation Zrotation
        JOINT mixamorig:LeftToeBase
        {
          OFFSET 3.341826 -2.164793 -7.190124
          CHANNELS 3 Xrotation Yrotation Zrotation
          End Site
          {
            OFFSET 1.002548 -0.649438 -2.157037
          }
        }
      }
    }
  }
  JOINT mixamorig:RightUpLeg
  {
    OFFSET -8.955008 0.525145 -1.977289
    CHANNELS 3 Xrotation Yrotation Zrotation
    JOINT mixamorig:RightLeg
    {
      OFFSET 2.492134 -34.880539 -0.332581
      CHANNELS 3 Xrotation Yrotation Zrotation
      JOINT mixamorig:RightFoot
      {
        OFFSET -0.863658 -42.213506 12.698094
        CHANNELS 3 Xrotation Yrotation Zrotation
        JOINT mixamorig:RightToeBase
        {
          OFFSET -2.361686 -0.997600 -10.601731
          CHANNELS 3 Xrotation Yrotation Zrotation
          End Site
          {
            OFFSET -0.708506 -0.299280 -3.180519
          }
        }
      }
    }
  }
}
MOTION
Frames: 14
Frame Time: 0.083333
0.156683 0.196649 0.060644 0.001188 -0.004564 -0.022075 0.000000 0.000000 0.000000 -10.840427 14.575125 2.780259 -18.601041 -9.549673 -10.769076 -15.703992 -13.140870 -7.932529 10.614793 -14.902795 -0.812861 -0.009508 0.146373 1.490158 0.023905 -0.307533 0.125430 0.000000 0.000000 0.000000 10.387104 -14.547794 -0.259096 0.146756 0.628975 0.232531 0.082297 -1.016222 -0.111819 0.000000 0.000000 0.000000 0.602436 0.030269 -0.264946 -0.781746 0.070763 0.521881 -0.992469 6.765988 -2.906618 0.000000 0.000000 0.000000 -0.412282 -0.026268 0.514325 0.694444 -0.127064 -0.966115 -0.447540 -0.116010 0.536693 0.000000 0.000000 0.000000
0.156838 0.195897 0.060873 -0.000284 -0.004302 -0.021132 0.000000 0.000000 0.000000 -10.840548 14.572736 2.779304 -18.600303 -9.551344 -10.768825 -15.702750 -13.142305 -7.931717 10.634613 -14.884596 -0.735275 -0.003507 0.124364 1.343567 0.013160 -0.300815 0.168911 0.000000 0.000000 0.000000 10.393627 -14.559298 -0.248604 0.139178 0.574752 0.218630 0.055087 -0.976685 -0.110809 0.000000 0.000000 0.000000 0.557578 0.028454 -0.245782 -0.718610 0.063840 0.483386 -0.969046 6.086992 -2.674281 0.000000 0.000000 0.000000 -0.395073 -0.024797 0.474250 0.665176 -0.119717 -0.895406 -0.417819 -0.083635 0.497338 0.000000 0.000000 0.000000
0.157131 0.194589 0.061355 -0.007012 -0.011200 -0.056475 0.000000 0.000000 0.000000 -10.836839 14.646759 2.828516 -18.600656 -9.508400 -10.764373 -15.719461 -13.098311 -7.943611 10.983383 -15.018226 -1.894152 -0.011411 0.286125 3.438267 0.010166 -0.853574 0.647740 0.000000 0.000000 0.000000 10.234592 -14.182136 -0.695208 0.375613 1.475018 0.589782 0.066024 -2.679199 -0.307842 0.000000 0.000000 0.000000 1.472724 0.076255 -0.655671 -1.879982 0.159975 1.273737 -2.766562 15.524072 -7.038903 0.000000 0.000000 0.000000 -1.089251 -0.067441 1.250777 1.833090 -0.325045 -2.378290 -1.118362 -0.115190 1.317221 0.000000 0.000000 0.000000
0.157373 0.193752 0.061754 -0.030561 -0.012677 -0.069183 0.000000 0.000000 0.000000 -10.833694 14.709438 2.857945 -18.595568 -9.497846 -10.765377 -15.718204 -13.086915 -7.949233 11.514253 -15.001252 -2.384608 -0.066242 0.244298 4.262673 -0.028383 -1.305032 1.404459 0.000000 0.000000 0.000000 10.180288 -14.013223 -1.037545 0.504306 1.780828 0.804422 -0.139266 -3.676418 -0.393673 0.000000 0.000000 0.000000 1.924821 0.100843 -0.892123 -2.396244 0.183415 1.664013 -4.164291 18.972284 -9.172452 0.000000 0.000000 0.000000 -1.539116 -0.094380 1.634626 2.593243 -0.449333 -3.154978 -1.515234 0.172963 1.730660 0.000000 0.000000 0.000000
0.157494 0.193262 0.062115 -0.064980 -0.007925 -0.053947 0.000000 0.000000 0.000000 -10.829454 14.793643 2.866529 -18.592580 -9.528242 -10.774521 -15.702457 -13.119070 -7.947187 12.183318 -14.948133 -2.741968 -0.239690 0.124138 4.849283 0.015975 -1.725116 2.019897 0.000000 0.000000 0.000000 10.220034 -14.052128 -1.366298 0.553067 1.813993 0.952623 -0.368127 -3.991296 -0.273566 0.000000 0.000000 0.000000 2.168539 0.108804 -1.099033 -2.609091 0.185921 1.926959 -5.029873 20.993541 -10.443656 0.000000 0.000000 0.000000 -1.811797 -0.115204 1.860851 3.064046 -0.526990 -3.630830 -1.805104 0.528776 1.963341 0.000000 0.000000 0.000000
0.157513 0.192956 0.062418 -0.096110 -0.001799 -0.031272 0.000000 0.000000 0.000000 -10.825315 14.875774 2.866636 -18.595880 -9.586550 -10.763654 -15.687130 -13.175065 -7.913505 12.899643 -14.853324 -2.934696 -0.310963 -0.031356 5.189501 0.067022 -2.128391 2.348870 0.000000 0.000000 0.000000 10.281230 -14.138828 -1.699807 0.571304 1.810036 1.120232 -0.594272 -4.058832 -0.073155 0.000000 0.000000 0.000000 2.263998 0.108149 -1.287055 -2.604145 0.208478 2.206365 -5.256043 21.845878 -10.975452 0.000000 0.000000 0.000000 -2.037778 -0.133972 1.962774 3.407038 -0.564163 -3.867169 -2.038607 0.682374 2.095134 0.000000 0.000000 0.000000
0.157441 0.192689 0.062721 -0.096345 0.000158 -0.021777 0.000000 0.000000 -0.000000 -10.825999 14.862154 2.855040 -18.602534 -9.631261 -10.713204 -15.688716 -13.207518 -7.844590 13.058341 -14.795813 -2.963572 -0.329965 -0.076638 5.165709 0.055842 -2.164391 2.373281 0.000000 0.000000 0.000000 10.317389 -14.139057 -1.957269 0.548797 1.747977 1.329687 -0.738434 -4.081115 -0.018943 0.000000 0.000000 0.000000 2.202509 0.104895 -1.401269 -2.540572 0.225252 2.362823 -5.464680 22.349674 -11.343696 0.000000 0.000000 0.000000 -2.307282 -0.149607 2.023499 3.601125 -0.581476 -4.008847 -2.107302 0.608641 2.208145 0.000000 0.000000 0.000000
0.157371 0.192423 0.062932 -0.061331 -0.000144 -0.015088 0.000000 0.000000 -0.000000 -10.829255 14.797366 2.828112 -18.608975 -9.618841 -10.684084 -15.705700 -13.188647 -7.819109 12.958622 -14.750147 -2.973131 -0.457805 -0.074970 5.119902 -0.002439 -2.036335 2.447919 0.000000 0.000000 0.000000 10.306620 -14.066572 -2.120777 0.543706 1.699749 1.452948 -0.823768 -4.071205 0.035631 0.000000 0.000000 0.000000 2.008534 0.098377 -1.479174 -2.496708 0.241859 2.436944 -5.665207 22.573699 -11.626745 0.000000 0.000000 0.000000 -2.703211 -0.168028 2.054397 3.777239 -0.587312 -4.103211 -2.056383 0.576407 2.298439 0.000000 0.000000 0.000000
0.157403 0.192151 0.063001 0.026705 -0.006152 -0.023917 0.000000 0.000000 -0.000000 -10.836894 14.645462 2.787576 -18.592932 -9.412558 -10.719548 -15.756249 -12.988716 -7.935668 12.565653 -14.685254 -2.982024 -0.747940 -0.030191 5.015431 -0.060121 -1.709250 2.561152 0.000000 0.000000 0.000000 10.243687 -13.899023 -2.235645 0.546834 1.759418 1.530856 -0.812878 -4.152579 0.055458 0.000000 0.000000 0.000000 1.643457 0.092093 -1.545291 -2.478071 0.270279 2.495206 -5.821369 22.684644 -11.915439 0.000000 0.000000 0.000000 -3.141508 -0.180341 2.127793 3.981878 -0.600638 -4.234920 -1.991507 0.627509 2.378657 0.000000 0.000000 0.000000
0.157598 0.191835 0.063000 0.112883 -0.016024 -0.052236 0.000000 0.000000 0.000000 -10.840936 14.565240 2.779184 -18.585022 -9.198270 -10.822178 -15.801993 -12.800744 -8.122175 12.163505 -14.695003 -3.011969 -1.083226 0.014619 4.963755 -0.127336 -1.410964 2.878587 0.000000 0.000000 0.000000 10.147219 -13.746353 -2.380191 0.565921 1.923644 1.666248 -0.743118 -4.310471 0.062884 0.000000 0.000000 0.000000 1.440561 0.097803 -1.578170 -2.509643 0.283776 2.550316 -6.204259 22.983589 -12.354589 0.000000 0.000000 0.000000 -3.369130 -0.178991 2.196475 4.131313 -0.625528 -4.355134 -2.086813 0.670735 2.476230 0.000000 0.000000 0.000000
0.157804 0.191480 0.063032 0.139272 -0.027411 -0.102204 0.000000 0.000000 0.000000 -10.838793 14.608531 2.828768 -18.593357 -9.124692 -10.847698 -15.830175 -12.735987 -8.175137 12.021211 -14.768541 -3.036891 -1.210405 0.030951 4.994239 -0.143309 -1.379609 3.251158 0.000000 0.000000 0.000000 10.023682 -13.589492 -2.465868 0.645314 2.043630 1.768538 -0.599809 -4.491448 0.038342 0.000000 0.000000 0.000000 1.539755 0.117825 -1.582660 -2.629199 0.273221 2.611932 -6.570596 23.357307 -12.724591 0.000000 0.000000 0.000000 -3.359985 -0.168748 2.244205 4.121605 -0.653669 -4.444376 -2.163263 0.530449 2.598899 0.000000 0.000000 0.000000
0.157817 0.191232 0.063243 0.149401 -0.039811 -0.160858 0.000000 0.000000 0.000000 -10.838828 14.608865 2.883665 -18.578221 -8.989933 -10.828684 -15.866955 -12.592745 -8.208474 11.896846 -14.805955 -3.113679 -1.266908 0.063187 5.103575 -0.210856 -1.383127 3.684317 0.000000 0.000000 0.000000 9.920123 -13.396585 -2.546065 0.695864 2.087621 1.937487 -0.626350 -4.683107 -0.031919 0.000000 0.000000 0.000000 1.636614 0.138470 -1.579556 -2.710518 0.264540 2.680060 -6.906387 23.498827 -12.993460 0.000000 0.000000 0.000000 -3.335136 -0.157838 2.303457 4.181920 -0.681600 -4.526630 -2.289059 0.414702 2.704605 0.000000 0.000000 0.000000
0.157630 0.191149 0.063757 0.015872 -0.044624 -0.214765 0.000000 0.000000 0.000000 -10.848581 14.415604 2.937659 -18.475653 -8.859466 -10.691193 -15.843097 -12.402235 -8.128042 11.900390 -14.670652 -3.200862 -1.144427 0.125926 5.230394 -0.162946 -1.497661 3.960413 0.000000 0.000000 0.000000 10.094103 -13.280859 -2.620032 0.573021 1.973452 2.235636 -1.119381 -4.917662 -0.249497 0.000000 0.000000 0.000000 1.828940 0.148933 -1.546014 -2.722048 0.259454 2.711008 -7.046177 23.494798 -13.067322 0.000000 0.000000 0.000000 -3.055509 -0.146896 2.382231 4.295099 -0.716095 -4.623302 -2.483529 0.245495 2.784969 0.000000 0.000000 0.000000
0.157355 0.191150 0.064457 -0.244102 -0.043201 -0.265893 0.000000 0.000000 0.000000 -10.872139 13.946901 2.973028 -18.254595 -8.574403 -10.414788 -15.786542 -11.993321 -7.975178 12.012832 -14.281778 -3.306892 -0.934086 0.213713 5.392281 -0.096462 -1.600534 3.974918 0.000000 0.000000 0.000000 10.582035 -13.221282 -2.827278 0.228296 1.834130 2.804603 -2.042898 -5.534852 -0.745979 0.000000 0.000000 0.000000 2.088445 0.150530 -1.507217 -2.667053 0.252730 2.717192 -6.912015 23.614207 -12.972070 0.000000 0.000000 0.000000 -2.406598 -0.126843 2.475825 4.406775 -0.762549 -4.732841 -2.834713 -0.073431 2.859315 0.000000 0.000000 0.000000
